# Blender v3.0.1 OBJ File: 'COFREFI.blend'
# www.blender.org
mtllib COFREFI.mtl
o Body_Cube.001
v 1.200504 -0.213088 1.857436
v 1.334003 -0.213370 1.850155
v 1.317525 -0.065536 1.742176
v 1.184762 -0.063882 1.749581
v 1.449750 -0.204801 0.363940
v 1.475758 -0.202877 0.030000
v 1.257433 0.009096 0.030000
v 1.268458 -0.004596 0.344129
v 0.573483 -0.003019 0.351206
v 0.561700 0.009096 0.030000
v 0.022869 0.011420 0.029406
v -0.059691 -0.001552 0.357772
v 0.611257 -0.041851 1.380973
v 0.608831 -0.039358 1.314823
v -0.033946 -0.033495 1.341090
v -0.031375 -0.035687 1.408593
v 1.366372 -0.210974 1.434531
v 1.371728 -0.210576 1.365759
v 1.301533 -0.045674 1.286516
v 1.303803 -0.048493 1.351209
v 0.597048 -0.027243 0.993619
v 0.585265 -0.015131 0.672412
v -0.058919 -0.012201 0.685546
v -0.046432 -0.022847 1.013318
v 1.397735 -0.208652 1.031819
v 1.423743 -0.206725 0.697881
v 1.279483 -0.018290 0.658258
v 1.290508 -0.031982 0.972387
v 1.352866 -0.211973 1.607957
v 1.309529 -0.055605 1.514347
v 0.625923 -0.056928 1.780749
v 0.617377 -0.048142 1.547787
v -0.024891 -0.041217 1.578816
v -0.015835 -0.048939 1.816541
v 1.359618 -0.211473 1.521243
v 1.306666 -0.052050 1.432777
v 0.614316 -0.044996 1.464379
v -0.028134 -0.038453 1.493704
v 1.173760 -0.050695 1.438843
v 1.170859 -0.047219 1.356922
v 1.176660 -0.054173 1.520765
v 1.157389 -0.031073 0.976462
v 1.146219 -0.017682 0.660975
v 1.168559 -0.044462 1.291951
v 1.135047 -0.004293 0.345488
v 1.123877 0.009096 0.030000
v -0.006747 -0.210525 1.923278
v 0.638567 -0.211894 1.888084
v -1.153042 -0.213088 1.857436
v -1.137301 -0.063882 1.749581
v -1.270064 -0.065536 1.742176
v -1.286541 -0.213370 1.850155
v -1.402289 -0.204801 0.363940
v -1.220997 -0.004596 0.344129
v -1.209972 0.009096 0.030000
v -1.428296 -0.202877 0.030000
v -0.526021 -0.003019 0.351206
v 0.107152 -0.001552 0.357772
v 0.024592 0.011420 0.029406
v -0.514239 0.009096 0.030000
v -0.563796 -0.041851 1.380973
v 0.078836 -0.035687 1.408593
v 0.081408 -0.033495 1.341090
v -0.561369 -0.039358 1.314823
v -1.318910 -0.210974 1.434531
v -1.256342 -0.048493 1.351209
v -1.254072 -0.045674 1.286516
v -1.324266 -0.210576 1.365759
v -0.549587 -0.027243 0.993619
v 0.093894 -0.022847 1.013318
v 0.106380 -0.012201 0.685546
v -0.537804 -0.015131 0.672412
v -1.350274 -0.208652 1.031819
v -1.243047 -0.031982 0.972387
v -1.232022 -0.018290 0.658258
v -1.376281 -0.206725 0.697881
v -1.262068 -0.055605 1.514347
v -1.305405 -0.211973 1.607957
v -0.578461 -0.056928 1.780749
v 0.063296 -0.048939 1.816541
v 0.072353 -0.041217 1.578816
v -0.569915 -0.048142 1.547787
v -1.312157 -0.211473 1.521243
v -1.259205 -0.052050 1.432777
v -0.566855 -0.044996 1.464379
v 0.075595 -0.038453 1.493704
v -1.126299 -0.050695 1.438843
v -1.123397 -0.047219 1.356922
v -1.129198 -0.054173 1.520765
v -1.109927 -0.031073 0.976462
v -1.098757 -0.017682 0.660975
v -1.121097 -0.044462 1.291951
v -1.087586 -0.004293 0.345488
v -1.076416 0.009096 0.030000
v 0.054209 -0.210525 1.923278
v -0.591105 -0.211894 1.888084
vt 0.355107 0.097248
vt -0.001203 0.135155
vt 0.247157 0.135155
vt 0.383308 0.097248
vt -0.001203 0.807287
vt -0.001203 0.958305
vt 0.247157 0.958305
vt 0.247157 0.807287
vt 0.470728 0.845552
vt 0.470720 0.996571
vt 0.999962 0.996571
vt 1.000570 0.845552
vt 0.470720 0.361383
vt 0.470720 0.392488
vt 1.000570 0.392488
vt 1.000570 0.361383
vt -0.001203 0.323118
vt -0.001203 0.354223
vt 0.247157 0.354223
vt 0.247157 0.323118
vt 0.470728 0.543507
vt 0.470728 0.694534
vt 1.000570 0.694534
vt 1.000570 0.543507
vt -0.001203 0.505242
vt -0.001203 0.656268
vt 0.247157 0.656268
vt 0.247157 0.505242
vt -0.001203 0.244685
vt 0.247157 0.244685
vt 0.461657 -0.020457
vt 0.470720 0.282950
vt 1.000570 0.282950
vt 1.000570 0.173420
vt -0.001203 0.283901
vt 0.247157 0.283901
vt 0.470720 0.322166
vt 1.000570 0.322166
vt 0.356765 0.283901
vt 0.356765 0.323118
vt 0.356765 0.135155
vt 0.356765 0.244685
vt 0.356765 0.505242
vt 0.356765 0.656268
vt 0.356765 0.354223
vt 0.356765 0.807287
vt 0.356765 0.958314
vt 0.037887 -0.005102
vt 0.355107 0.044858
vt 0.383308 0.044858
vt 0.446752 0.002551
vt 0.355107 0.097248
vt 0.383308 0.097248
vt 0.002444 -0.005151
vt -0.001203 0.135155
vt -0.001203 0.807287
vt 0.247157 0.807287
vt 0.247157 0.958305
vt -0.001203 0.958305
vt 0.470728 0.845552
vt 1.000570 0.845552
vt 0.999962 0.996571
vt 0.470720 0.996571
vt 0.470720 0.361383
vt 1.000570 0.361383
vt 1.000570 0.392488
vt 0.470720 0.392488
vt -0.001203 0.323118
vt 0.247157 0.323118
vt 0.247157 0.354223
vt -0.001203 0.354223
vt 0.470728 0.543507
vt 1.000570 0.543507
vt 1.000570 0.694534
vt 0.470728 0.694534
vt -0.001203 0.505242
vt 0.247157 0.505242
vt 0.247157 0.656268
vt -0.001203 0.656268
vt 0.247157 0.244685
vt -0.001203 0.244685
vt 0.470720 0.173420
vt 1.000570 0.173420
vt 1.000570 0.282950
vt 0.470720 0.282950
vt -0.001203 0.283901
vt 0.247157 0.283901
vt 0.470720 0.322166
vt 1.000570 0.322166
vt 0.356765 0.283901
vt 0.356765 0.323118
vt 0.356765 0.135155
vt 0.356765 0.244685
vt 0.356765 0.505242
vt 0.356765 0.656268
vt 0.356765 0.354223
vt 0.356765 0.807287
vt 0.356765 0.958314
vt 0.400424 0.030612
vt 0.292674 0.051020
vt 0.383308 0.044858
vt 0.279578 0.080572
vn 0.0492 0.5801 0.8131
vn 0.0487 0.5906 0.8055
vn 0.0488 0.5904 0.8056
vn 0.7168 0.6965 0.0334
vn 0.0032 0.9993 0.0384
vn 0.0024 0.9992 0.0395
vn 0.0034 0.9992 0.0390
vn 0.0033 0.9993 0.0382
vn 0.0112 0.9992 0.0371
vn 0.0101 0.9993 0.0372
vn 0.0100 0.9993 0.0347
vn 0.0111 0.9993 0.0346
vn 0.9209 0.3887 0.0307
vn 0.0080 0.9993 0.0372
vn 0.0053 0.9993 0.0374
vn 0.0053 0.9994 0.0349
vn 0.0079 0.9994 0.0348
vn 0.8189 0.5730 0.0327
vn 0.9772 0.2105 0.0277
vn 0.0135 0.9992 0.0370
vn 0.0129 0.9992 0.0371
vn 0.0128 0.9993 0.0346
vn 0.0134 0.9993 0.0345
vn 0.9356 0.3518 0.0301
vn 0.0119 0.9992 0.0371
vn 0.0118 0.9993 0.0346
vn 0.0121 0.9991 0.0411
vn 0.0114 0.9991 0.0411
vn 0.0137 0.9991 0.0410
vn 0.0131 0.9991 0.0410
vn 0.0081 0.9991 0.0412
vn 0.0054 0.9991 0.0413
vn 0.0103 0.9991 0.0411
vn 0.0027 0.9991 0.0414
vn 0.0013 0.9991 0.0414
vn 0.0496 0.5618 0.8258
vn 0.0027 0.9991 0.0429
vn 0.0014 0.9991 0.0429
vn 0.0114 0.9990 0.0426
vn 0.0103 0.9990 0.0426
vn 0.0081 0.9991 0.0427
vn 0.0054 0.9991 0.0428
vn 0.0138 0.9990 0.0425
vn 0.0131 0.9990 0.0425
vn 0.0121 0.9990 0.0425
vn 0.0491 0.5799 0.8132
vn 0.7637 0.6448 0.0332
vn 0.9513 0.3070 0.0294
vn 0.8817 0.4708 0.0317
vn -0.0492 0.5798 0.8133
vn -0.0488 0.5907 0.8054
vn -0.0487 0.5906 0.8055
vn -0.7168 0.6965 0.0334
vn -0.0032 0.9993 0.0384
vn -0.0033 0.9993 0.0382
vn -0.0034 0.9992 0.0390
vn -0.0024 0.9992 0.0395
vn -0.0112 0.9992 0.0371
vn -0.0111 0.9993 0.0346
vn -0.0100 0.9993 0.0347
vn -0.0101 0.9993 0.0372
vn -0.9209 0.3887 0.0307
vn -0.0080 0.9993 0.0372
vn -0.0079 0.9994 0.0348
vn -0.0053 0.9994 0.0349
vn -0.0053 0.9993 0.0374
vn -0.8189 0.5730 0.0327
vn -0.9772 0.2105 0.0277
vn -0.0135 0.9992 0.0370
vn -0.0134 0.9993 0.0345
vn -0.0128 0.9993 0.0346
vn -0.0129 0.9992 0.0371
vn -0.9356 0.3518 0.0301
vn -0.0119 0.9992 0.0371
vn -0.0118 0.9993 0.0346
vn -0.0121 0.9991 0.0411
vn -0.0114 0.9991 0.0411
vn -0.0137 0.9991 0.0410
vn -0.0131 0.9991 0.0410
vn -0.0081 0.9991 0.0412
vn -0.0054 0.9991 0.0413
vn -0.0103 0.9991 0.0411
vn -0.0027 0.9991 0.0414
vn -0.0013 0.9991 0.0414
vn -0.0496 0.5618 0.8258
vn -0.0027 0.9991 0.0429
vn -0.0014 0.9991 0.0429
vn -0.0114 0.9990 0.0426
vn -0.0103 0.9990 0.0426
vn -0.0081 0.9991 0.0427
vn -0.0054 0.9991 0.0428
vn -0.0138 0.9990 0.0425
vn -0.0131 0.9990 0.0425
vn -0.0121 0.9990 0.0425
vn -0.0491 0.5799 0.8132
vn -0.7637 0.6448 0.0332
vn -0.9513 0.3070 0.0294
vn -0.8817 0.4708 0.0317
usemtl Body
s 1
f 1/1/1 2/2/2 3/3/2 4/4/3
f 5/5/4 6/6/4 7/7/4 8/8/4
f 9/9/5 10/10/6 11/11/7 12/12/8
f 13/13/9 14/14/10 15/15/11 16/16/12
f 17/17/13 18/18/13 19/19/13 20/20/13
f 21/21/14 22/22/15 23/23/16 24/24/17
f 25/25/18 26/26/18 27/27/18 28/28/18
f 2/2/19 29/29/19 30/30/19 3/3/19
f 31/31/20 32/32/21 33/33/22 34/34/23
f 35/35/24 17/17/24 20/20/24 36/36/24
f 37/37/25 13/13/9 16/16/12 38/38/26
f 39/39/27 40/40/28 13/13/9 37/37/25
f 4/41/29 41/42/30 32/32/21 31/31/20
f 42/43/31 43/44/32 22/22/15 21/21/14
f 40/40/28 44/45/33 14/14/10 13/13/9
f 45/46/34 46/47/35 10/10/6 9/9/5
f 47/48/36 48/49/36 31/50/36 34/51/36
f 8/8/37 7/7/38 46/47/35 45/46/34
f 20/20/39 19/19/40 44/45/33 40/40/28
f 28/28/41 27/27/42 43/44/32 42/43/31
f 3/3/43 30/30/44 41/42/30 4/41/29
f 36/36/45 20/20/39 40/40/28 39/39/27
f 48/49/46 1/1/1 4/4/3 31/50/46
f 27/27/42 8/8/37 45/46/34 43/44/32
f 43/44/32 45/46/34 9/9/5 22/22/15
f 22/22/15 9/9/5 12/12/8 23/23/16
f 26/26/47 5/5/47 8/8/47 27/27/47
f 30/30/44 36/36/45 39/39/27 41/42/30
f 41/42/30 39/39/27 37/37/25 32/32/21
f 32/32/21 37/37/25 38/38/26 33/33/22
f 29/29/48 35/35/48 36/36/48 30/30/48
f 19/19/40 28/28/41 42/43/31 44/45/33
f 44/45/33 42/43/31 21/21/14 14/14/10
f 18/18/49 25/25/49 28/28/49 19/19/49
f 14/14/10 21/21/14 24/24/17 15/15/11
f 49/52/50 50/53/51 51/54/52 52/55/52
f 53/56/53 54/57/53 55/58/53 56/59/53
f 57/60/54 58/61/55 59/62/56 60/63/57
f 61/64/58 62/65/59 63/66/60 64/67/61
f 65/68/62 66/69/62 67/70/62 68/71/62
f 69/72/63 70/73/64 71/74/65 72/75/66
f 73/76/67 74/77/67 75/78/67 76/79/67
f 52/55/68 51/54/68 77/80/68 78/81/68
f 79/82/69 80/83/70 81/84/71 82/85/72
f 83/86/73 84/87/73 66/69/73 65/68/73
f 85/88/74 86/89/75 62/65/59 61/64/58
f 87/90/76 85/88/74 61/64/58 88/91/77
f 50/92/78 79/82/69 82/85/72 89/93/79
f 90/94/80 69/72/63 72/75/66 91/95/81
f 88/91/77 61/64/58 64/67/61 92/96/82
f 93/97/83 57/60/54 60/63/57 94/98/84
f 95/99/85 80/100/85 79/101/85 96/102/85
f 54/57/86 93/97/83 94/98/84 55/58/87
f 66/69/88 88/91/77 92/96/82 67/70/89
f 74/77/90 90/94/80 91/95/81 75/78/91
f 51/54/92 50/92/78 89/93/79 77/80/93
f 84/87/94 87/90/76 88/91/77 66/69/88
f 96/102/95 79/101/95 50/53/51 49/52/50
f 75/78/91 91/95/81 93/97/83 54/57/86
f 91/95/81 72/75/66 57/60/54 93/97/83
f 72/75/66 71/74/65 58/61/55 57/60/54
f 76/79/96 75/78/96 54/57/96 53/56/96
f 77/80/93 89/93/79 87/90/76 84/87/94
f 89/93/79 82/85/72 85/88/74 87/90/76
f 82/85/72 81/84/71 86/89/75 85/88/74
f 78/81/97 77/80/97 84/87/97 83/86/97
f 67/70/89 92/96/82 90/94/80 74/77/90
f 92/96/82 64/67/61 69/72/63 90/94/80
f 68/71/98 67/70/98 74/77/98 73/76/98
f 64/67/61 63/66/60 70/73/64 69/72/63
