# Blender v3.0.1 OBJ File: 'carroprac5.blend'
# www.blender.org
mtllib jeepllanta.mtl
o Cylinder.010_Cylinder.008
v 0.154184 -0.101830 -0.679057
v -0.234847 -0.101830 -0.672774
v -0.234707 0.062318 -0.661285
v 0.154324 0.062318 -0.667566
v -0.234297 0.220159 -0.627253
v 0.154734 0.220159 -0.633536
v -0.233630 0.365627 -0.571991
v 0.155401 0.365627 -0.578275
v -0.232732 0.493130 -0.497620
v 0.156299 0.493130 -0.503904
v -0.231637 0.597770 -0.406999
v 0.157394 0.597770 -0.413282
v -0.230389 0.675524 -0.303610
v 0.158642 0.675524 -0.309894
v -0.229034 0.723403 -0.191427
v 0.159997 0.723403 -0.197710
v -0.227626 0.739572 -0.074760
v 0.161405 0.739572 -0.081042
v -0.226217 0.723405 0.041908
v 0.162814 0.723405 0.035625
v -0.224862 0.675526 0.154092
v 0.164169 0.675526 0.147809
v -0.223614 0.597772 0.257480
v 0.165417 0.597772 0.251199
v -0.222520 0.493134 0.348102
v 0.166511 0.493134 0.341820
v -0.221623 0.365630 0.422475
v 0.167410 0.365630 0.416191
v -0.220955 0.220164 0.477738
v 0.168076 0.220164 0.471455
v -0.220544 0.062323 0.511768
v 0.168487 0.062323 0.505485
v -0.220404 -0.101826 0.523259
v 0.168626 -0.101826 0.516976
v -0.220544 -0.265974 0.511768
v 0.168487 -0.265974 0.505486
v -0.220955 -0.423816 0.477738
v 0.168076 -0.423816 0.471456
v -0.221623 -0.569284 0.422476
v 0.167410 -0.569284 0.416193
v -0.222520 -0.696786 0.348105
v 0.166511 -0.696786 0.341822
v -0.223614 -0.801425 0.257484
v 0.165417 -0.801425 0.251201
v -0.224862 -0.879179 0.154095
v 0.164169 -0.879179 0.147812
v -0.226217 -0.927059 0.041912
v 0.162814 -0.927059 0.035628
v -0.227626 -0.943228 -0.074757
v 0.161405 -0.943228 -0.081038
v -0.229034 -0.927062 -0.191424
v 0.159997 -0.927062 -0.197707
v -0.230389 -0.879182 -0.303607
v 0.158642 -0.879182 -0.309890
v -0.231637 -0.801428 -0.406996
v 0.157394 -0.801428 -0.413279
v -0.232732 -0.696790 -0.497619
v 0.156299 -0.696790 -0.503900
v -0.233630 -0.569286 -0.571990
v 0.155401 -0.569286 -0.578273
v -0.234297 -0.423820 -0.627253
v 0.154734 -0.423820 -0.633535
v -0.228575 0.454032 -0.153343
v -0.227626 0.464923 -0.074758
v -0.234707 -0.265979 -0.661283
v 0.154324 -0.265979 -0.667566
v -0.222763 -0.101826 0.328054
v -0.222855 0.008742 0.320314
v -0.095602 0.008742 0.318259
v -0.095508 -0.101826 0.325999
v -0.222855 -0.212394 0.320314
v -0.228575 -0.657688 -0.153341
v -0.229486 -0.625438 -0.228906
v -0.231670 0.213041 -0.409685
v -0.231066 0.298924 -0.359590
v -0.224187 0.298926 0.210074
v -0.223582 0.213043 0.260168
v -0.224923 -0.573063 0.149033
v -0.225765 -0.625436 0.079392
v -0.232119 -0.318715 -0.446908
v -0.232396 -0.212398 -0.469829
v -0.226677 0.454032 0.003826
v -0.223132 -0.318713 0.297392
v -0.230328 -0.573065 -0.298547
v -0.230328 0.369406 -0.298549
v -0.223132 0.115059 0.297392
v -0.226677 -0.657688 0.003828
v -0.232490 -0.101830 -0.477571
v -0.232396 0.008738 -0.469831
v -0.225765 0.421782 0.079391
v -0.223582 -0.416697 0.260168
v -0.231066 -0.502582 -0.359589
v -0.229486 0.421780 -0.228909
v -0.227626 -0.668579 -0.074757
v -0.232119 0.115057 -0.446908
v -0.224923 0.369409 0.149032
v -0.224187 -0.502580 0.210074
v -0.231670 -0.416699 -0.409684
v -0.104866 0.115057 -0.448963
v -0.104417 0.213041 -0.411740
v -0.104417 -0.416699 -0.411738
v -0.104866 -0.318715 -0.448963
v -0.095602 -0.212394 0.318259
v -0.103811 0.298924 -0.361645
v -0.105143 -0.212398 -0.471884
v -0.095879 -0.318713 0.295337
v -0.103075 0.369406 -0.300604
v -0.105237 -0.101830 -0.479626
v -0.096329 -0.416697 0.258113
v -0.102233 0.421780 -0.230964
v -0.096934 -0.502580 0.208019
v -0.101321 0.454032 -0.155399
v -0.097671 -0.573063 0.146978
v -0.100373 0.464923 -0.076813
v -0.098512 -0.625436 0.077337
v -0.099423 0.454032 0.001771
v -0.099423 -0.657688 0.001773
v -0.098512 0.421782 0.077336
v -0.100373 -0.668579 -0.076812
v -0.097671 0.369409 0.146977
v -0.101321 -0.657688 -0.155396
v -0.096934 0.298926 0.208017
v -0.102233 -0.625438 -0.230961
v -0.096329 0.213043 0.258113
v -0.103075 -0.573065 -0.300602
v -0.095879 0.115059 0.295336
v -0.105143 0.008738 -0.471886
v -0.103811 -0.502582 -0.361644
vt 1.000000 0.500000
vt 1.000000 1.000000
vt 0.968750 1.000000
vt 0.968750 0.500000
vt 0.937500 1.000000
vt 0.937500 0.500000
vt 0.906250 1.000000
vt 0.906250 0.500000
vt 0.875000 1.000000
vt 0.875000 0.500000
vt 0.843750 1.000000
vt 0.843750 0.500000
vt 0.812500 1.000000
vt 0.812500 0.500000
vt 0.781250 1.000000
vt 0.781250 0.500000
vt 0.750000 1.000000
vt 0.750000 0.500000
vt 0.718750 1.000000
vt 0.718750 0.500000
vt 0.687500 1.000000
vt 0.687500 0.500000
vt 0.656250 1.000000
vt 0.656250 0.500000
vt 0.625000 1.000000
vt 0.625000 0.500000
vt 0.593750 1.000000
vt 0.593750 0.500000
vt 0.562500 1.000000
vt 0.562500 0.500000
vt 0.531250 1.000000
vt 0.531250 0.500000
vt 0.500000 1.000000
vt 0.500000 0.500000
vt 0.468750 1.000000
vt 0.468750 0.500000
vt 0.437500 1.000000
vt 0.437500 0.500000
vt 0.406250 1.000000
vt 0.406250 0.500000
vt 0.375000 1.000000
vt 0.375000 0.500000
vt 0.343750 1.000000
vt 0.343750 0.500000
vt 0.312500 1.000000
vt 0.312500 0.500000
vt 0.281250 1.000000
vt 0.281250 0.500000
vt 0.250000 1.000000
vt 0.250000 0.500000
vt 0.218750 1.000000
vt 0.218750 0.500000
vt 0.187500 1.000000
vt 0.187500 0.500000
vt 0.156250 1.000000
vt 0.156250 0.500000
vt 0.125000 1.000000
vt 0.125000 0.500000
vt 0.093750 1.000000
vt 0.093750 0.500000
vt 0.062500 1.000000
vt 0.062500 0.500000
vt 0.781250 1.000000
vt 0.750000 1.000000
vt 0.031250 1.000000
vt 0.031250 0.500000
vt 0.000000 1.000000
vt 0.000000 0.500000
vt 0.500000 1.000000
vt 0.531250 1.000000
vt 0.531250 1.000000
vt 0.500000 1.000000
vt 0.468750 1.000000
vt 0.218750 1.000000
vt 0.187500 1.000000
vt 0.906250 1.000000
vt 0.875000 1.000000
vt 0.625000 1.000000
vt 0.593750 1.000000
vt 0.343750 1.000000
vt 0.312500 1.000000
vt 0.062500 1.000000
vt 0.031250 1.000000
vt 0.718750 1.000000
vt 0.437500 1.000000
vt 0.156250 1.000000
vt 0.843750 1.000000
vt 0.562500 1.000000
vt 0.281250 1.000000
vt 1.000000 1.000000
vt 0.968750 1.000000
vt 0.000000 1.000000
vt 0.687500 1.000000
vt 0.406250 1.000000
vt 0.125000 1.000000
vt 0.812500 1.000000
vt 0.250000 1.000000
vt 0.937500 1.000000
vt 0.656250 1.000000
vt 0.375000 1.000000
vt 0.093750 1.000000
vt 0.937500 1.000000
vt 0.906250 1.000000
vt 0.093750 1.000000
vt 0.062500 1.000000
vt 0.468750 1.000000
vt 0.875000 1.000000
vt 0.031250 1.000000
vt 0.437500 1.000000
vt 0.843750 1.000000
vt 0.000000 1.000000
vt 0.406250 1.000000
vt 0.812500 1.000000
vt 0.375000 1.000000
vt 0.781250 1.000000
vt 0.343750 1.000000
vt 0.750000 1.000000
vt 0.312500 1.000000
vt 0.718750 1.000000
vt 0.281250 1.000000
vt 0.687500 1.000000
vt 0.250000 1.000000
vt 0.656250 1.000000
vt 0.218750 1.000000
vt 0.625000 1.000000
vt 0.187500 1.000000
vt 0.593750 1.000000
vt 0.156250 1.000000
vt 0.562500 1.000000
vt 1.000000 1.000000
vt 0.968750 1.000000
vt 0.125000 1.000000
vn -0.0161 0.0698 -0.9974
vn -0.0158 0.2108 -0.9774
vn -0.0151 0.3551 -0.9347
vn -0.0139 0.5039 -0.8637
vn -0.0122 0.6547 -0.7558
vn -0.0097 0.7992 -0.6009
vn -0.0063 0.9197 -0.3925
vn -0.0022 0.9905 -0.1372
vn 0.0022 0.9905 0.1372
vn 0.0063 0.9197 0.3925
vn 0.0097 0.7992 0.6009
vn 0.0122 0.6547 0.7558
vn 0.0139 0.5039 0.8637
vn 0.0151 0.3552 0.9347
vn 0.0158 0.2108 0.9774
vn 0.0161 0.0698 0.9974
vn 0.0161 -0.0698 0.9974
vn 0.0158 -0.2108 0.9774
vn 0.0151 -0.3552 0.9347
vn 0.0139 -0.5039 0.8637
vn 0.0122 -0.6547 0.7558
vn 0.0097 -0.7992 0.6009
vn 0.0063 -0.9197 0.3925
vn 0.0022 -0.9905 0.1372
vn -0.0022 -0.9905 -0.1372
vn -0.0063 -0.9197 -0.3925
vn -0.0097 -0.7992 -0.6009
vn -0.0122 -0.6547 -0.7558
vn -0.0139 -0.5039 -0.8637
vn -0.0151 -0.3552 -0.9347
vn -0.9999 0.0000 0.0121
vn -0.0158 -0.2108 -0.9774
vn -0.0161 -0.0698 -0.9974
vn 0.0151 -0.3551 0.9347
vn -0.0151 0.3552 -0.9347
vn 0.0097 -0.7992 0.6010
vn -0.0022 0.9905 -0.1373
vn 0.0022 0.9905 0.1373
vn -0.0140 -0.5039 -0.8637
vn -0.0151 -0.3551 -0.9347
vn 0.9999 -0.0000 -0.0121
usemtl Rim
s 1
f 1/1/1 2/2/1 3/3/1 4/4/1
f 4/4/2 3/3/2 5/5/2 6/6/2
f 6/6/3 5/5/3 7/7/3 8/8/3
f 8/8/4 7/7/4 9/9/4 10/10/4
f 10/10/5 9/9/5 11/11/5 12/12/5
f 12/12/6 11/11/6 13/13/6 14/14/6
f 14/14/7 13/13/7 15/15/7 16/16/7
f 16/16/8 15/15/8 17/17/8 18/18/8
f 18/18/9 17/17/9 19/19/9 20/20/9
f 20/20/10 19/19/10 21/21/10 22/22/10
f 22/22/11 21/21/11 23/23/11 24/24/11
f 24/24/12 23/23/12 25/25/12 26/26/12
f 26/26/13 25/25/13 27/27/13 28/28/13
f 28/28/14 27/27/14 29/29/14 30/30/14
f 30/30/15 29/29/15 31/31/15 32/32/15
f 32/32/16 31/31/16 33/33/16 34/34/16
f 34/34/17 33/33/17 35/35/17 36/36/17
f 36/36/18 35/35/18 37/37/18 38/38/18
f 38/38/19 37/37/19 39/39/19 40/40/19
f 40/40/20 39/39/20 41/41/20 42/42/20
f 42/42/21 41/41/21 43/43/21 44/44/21
f 44/44/22 43/43/22 45/45/22 46/46/22
f 46/46/23 45/45/23 47/47/23 48/48/23
f 48/48/24 47/47/24 49/49/24 50/50/24
f 50/50/25 49/49/25 51/51/25 52/52/25
f 52/52/26 51/51/26 53/53/26 54/54/26
f 54/54/27 53/53/27 55/55/27 56/56/27
f 56/56/28 55/55/28 57/57/28 58/58/28
f 58/58/29 57/57/29 59/59/29 60/60/29
f 60/60/30 59/59/30 61/61/30 62/62/30
f 17/17/31 15/15/31 63/63/31 64/64/31
f 62/62/32 61/61/32 65/65/32 66/66/32
f 66/66/33 65/65/33 2/67/33 1/68/33
f 67/69/33 68/70/33 69/71/33 70/72/33
f 35/35/31 33/33/31 67/69/31 71/73/31
f 53/53/31 51/51/31 72/74/31 73/75/31
f 9/9/31 7/7/31 74/76/31 75/77/31
f 27/27/31 25/25/31 76/78/31 77/79/31
f 45/45/31 43/43/31 78/80/31 79/81/31
f 65/65/31 61/61/31 80/82/31 81/83/31
f 19/19/31 17/17/31 64/64/31 82/84/31
f 37/37/31 35/35/31 71/73/31 83/85/31
f 55/55/31 53/53/31 73/75/31 84/86/31
f 11/11/31 9/9/31 75/77/31 85/87/31
f 29/29/31 27/27/31 77/79/31 86/88/31
f 47/47/31 45/45/31 79/81/31 87/89/31
f 3/3/31 2/2/31 88/90/31 89/91/31
f 2/67/31 65/65/31 81/83/31 88/92/31
f 21/21/31 19/19/31 82/84/31 90/93/31
f 39/39/31 37/37/31 83/85/31 91/94/31
f 57/57/31 55/55/31 84/86/31 92/95/31
f 13/13/31 11/11/31 85/87/31 93/96/31
f 31/31/31 29/29/31 86/88/31 68/70/31
f 49/49/31 47/47/31 87/89/31 94/97/31
f 5/5/31 3/3/31 89/91/31 95/98/31
f 23/23/31 21/21/31 90/93/31 96/99/31
f 41/41/31 39/39/31 91/94/31 97/100/31
f 59/59/31 57/57/31 92/95/31 98/101/31
f 15/15/31 13/13/31 93/96/31 63/63/31
f 33/33/31 31/31/31 68/70/31 67/69/31
f 51/51/31 49/49/31 94/97/31 72/74/31
f 7/7/31 5/5/31 95/98/31 74/76/31
f 25/25/31 23/23/31 96/99/31 76/78/31
f 43/43/31 41/41/31 97/100/31 78/80/31
f 61/61/31 59/59/31 98/101/31 80/82/31
f 74/76/34 95/98/34 99/102/34 100/103/34
f 80/82/14 98/101/14 101/104/14 102/105/14
f 71/73/1 67/69/1 70/72/1 103/106/1
f 75/77/20 74/76/20 100/103/20 104/107/20
f 81/83/15 80/82/15 102/105/15 105/108/15
f 83/85/2 71/73/2 103/106/2 106/109/2
f 85/87/21 75/77/21 104/107/21 107/110/21
f 88/92/16 81/83/16 105/108/16 108/111/16
f 91/94/35 83/85/35 106/109/35 109/112/35
f 93/96/36 85/87/36 107/110/36 110/113/36
f 97/100/4 91/94/4 109/112/4 111/114/4
f 63/63/23 93/96/23 110/113/23 112/115/23
f 78/80/5 97/100/5 111/114/5 113/116/5
f 64/64/24 63/63/24 112/115/24 114/117/24
f 79/81/6 78/80/6 113/116/6 115/118/6
f 82/84/25 64/64/25 114/117/25 116/119/25
f 87/89/7 79/81/7 115/118/7 117/120/7
f 90/93/26 82/84/26 116/119/26 118/121/26
f 94/97/37 87/89/37 117/120/37 119/122/37
f 96/99/27 90/93/27 118/121/27 120/123/27
f 72/74/38 94/97/38 119/122/38 121/124/38
f 76/78/28 96/99/28 120/123/28 122/125/28
f 73/75/10 72/74/10 121/124/10 123/126/10
f 77/79/39 76/78/39 122/125/39 124/127/39
f 84/86/11 73/75/11 123/126/11 125/128/11
f 86/88/40 77/79/40 124/127/40 126/129/40
f 89/91/17 88/90/17 108/130/17 127/131/17
f 92/95/12 84/86/12 125/128/12 128/132/12
f 68/70/32 86/88/32 126/129/32 69/71/32
f 95/98/18 89/91/18 127/131/18 99/102/18
f 98/101/13 92/95/13 128/132/13 101/104/13
f 1/68/41 4/4/41 6/6/41 8/8/41 10/10/41 12/12/41 14/14/41 16/16/41 18/18/41 20/20/41 22/22/41 24/24/41 26/26/41 28/28/41 30/30/41 32/32/41 34/34/41 36/36/41 38/38/41 40/40/41 42/42/41 44/44/41 46/46/41 48/48/41 50/50/41 52/52/41 54/54/41 56/56/41 58/58/41 60/60/41 62/62/41 66/66/41
o Cylinder.011_Cylinder.013
v -0.096329 -0.416697 0.258113
v -0.095879 -0.318713 0.295337
v -0.098135 -0.209861 0.108559
v -0.098358 -0.258668 0.090017
v -0.099446 -0.362642 -0.000029
v -0.099027 -0.336554 0.034660
v -0.153902 -0.336554 0.035546
v -0.154321 -0.362642 0.000857
v -0.102233 0.421780 -0.230964
v -0.103075 0.369406 -0.300604
v -0.101719 0.132900 -0.188285
v -0.101299 0.158986 -0.153596
v -0.096934 -0.502580 0.208019
v -0.098660 -0.301445 0.065065
v -0.101321 0.454032 -0.155399
v -0.100846 0.175051 -0.115958
v -0.097670 -0.573063 0.146978
v -0.100373 0.464923 -0.076813
v -0.100373 0.180476 -0.076813
v -0.098512 -0.625436 0.077337
v -0.099423 0.454032 0.001771
v -0.099901 0.175053 -0.037669
v -0.099423 -0.657688 0.001773
v -0.099901 -0.378707 -0.037669
v -0.098512 0.421782 0.077336
v -0.099446 0.158988 -0.000029
v -0.100373 -0.668579 -0.076812
v -0.100373 -0.384133 -0.076812
v -0.097670 0.369409 0.146977
v -0.099027 0.132900 0.034658
v -0.101321 -0.657688 -0.155396
v -0.100846 -0.378709 -0.115956
v -0.096934 0.298926 0.208017
v -0.098660 0.097792 0.065063
v -0.102233 -0.625438 -0.230961
v -0.101299 -0.362644 -0.153596
v -0.096329 0.213043 0.258113
v -0.098358 0.055012 0.090017
v -0.103075 -0.573065 -0.300602
v -0.101719 -0.336556 -0.188285
v -0.095879 0.115059 0.295336
v -0.098135 0.006205 0.108559
v -0.105143 0.008738 -0.471886
v -0.105237 -0.101830 -0.479626
v -0.102795 -0.101828 -0.277458
v -0.102749 -0.046753 -0.273603
v -0.103811 -0.502582 -0.361644
v -0.102086 -0.301448 -0.218690
v -0.095602 0.008742 0.318259
v -0.097997 -0.046753 0.119976
v -0.104866 0.115057 -0.448963
v -0.102612 0.006205 -0.262185
v -0.104417 -0.416699 -0.411738
v -0.102387 -0.258668 -0.243642
v -0.095508 -0.101826 0.325999
v -0.097951 -0.101828 0.123832
v -0.104417 0.213041 -0.411740
v -0.102387 0.055012 -0.243644
v -0.104866 -0.318715 -0.448963
v -0.102612 -0.209861 -0.262185
v -0.095602 -0.212394 0.318259
v -0.097997 -0.156903 0.119976
v -0.103811 0.298924 -0.361645
v -0.102086 0.097792 -0.218690
v -0.105143 -0.212398 -0.471884
v -0.102749 -0.156903 -0.273602
v -0.157623 -0.046753 -0.272716
v -0.157670 -0.101828 -0.276572
v -0.157623 -0.156903 -0.272716
v -0.157487 -0.209861 -0.261298
v -0.157262 -0.258668 -0.242756
v -0.156961 -0.301448 -0.217804
v -0.156594 -0.336556 -0.187399
v -0.156175 -0.362644 -0.152710
v -0.155720 -0.378709 -0.115070
v -0.155248 -0.384133 -0.075926
v -0.154774 -0.378707 -0.036781
v -0.153535 -0.301445 0.065951
v -0.153234 -0.258668 0.090903
v -0.153009 -0.209861 0.109445
v -0.152871 -0.156903 0.120863
v -0.152825 -0.101828 0.124718
v -0.152871 -0.046753 0.120863
v -0.153009 0.006205 0.109445
v -0.153234 0.055012 0.090903
v -0.153535 0.097792 0.065951
v -0.153902 0.132900 0.035544
v -0.154321 0.158988 0.000857
v -0.154774 0.175053 -0.036783
v -0.155248 0.180476 -0.075927
v -0.155720 0.175051 -0.115072
v -0.156175 0.158986 -0.152710
v -0.156594 0.132900 -0.187399
v -0.156961 0.097792 -0.217804
v -0.157262 0.055012 -0.242758
v -0.157487 0.006205 -0.261298
vt 0.406250 1.000000
vt 0.437500 1.000000
vt 0.437500 1.000000
vt 0.406250 1.000000
vt 0.312500 1.000000
vt 0.343750 1.000000
vt 0.343750 1.000000
vt 0.312500 1.000000
vt 0.812500 1.000000
vt 0.843750 1.000000
vt 0.843750 1.000000
vt 0.812500 1.000000
vt 0.375000 1.000000
vt 0.375000 1.000000
vt 0.781250 1.000000
vt 0.781250 1.000000
vt 0.343750 1.000000
vt 0.750000 1.000000
vt 0.750000 1.000000
vt 0.312500 1.000000
vt 0.718750 1.000000
vt 0.718750 1.000000
vt 0.281250 1.000000
vt 0.281250 1.000000
vt 0.687500 1.000000
vt 0.687500 1.000000
vt 0.250000 1.000000
vt 0.250000 1.000000
vt 0.656250 1.000000
vt 0.656250 1.000000
vt 0.218750 1.000000
vt 0.218750 1.000000
vt 0.625000 1.000000
vt 0.625000 1.000000
vt 0.187500 1.000000
vt 0.187500 1.000000
vt 0.593750 1.000000
vt 0.593750 1.000000
vt 0.156250 1.000000
vt 0.156250 1.000000
vt 0.562500 1.000000
vt 0.562500 1.000000
vt 0.968750 1.000000
vt 1.000000 1.000000
vt 1.000000 1.000000
vt 0.968750 1.000000
vt 0.125000 1.000000
vt 0.125000 1.000000
vt 0.531250 1.000000
vt 0.531250 1.000000
vt 0.937500 1.000000
vt 0.937500 1.000000
vt 0.093750 1.000000
vt 0.093750 1.000000
vt 0.500000 1.000000
vt 0.500000 1.000000
vt 0.906250 1.000000
vt 0.906250 1.000000
vt 0.062500 1.000000
vt 0.062500 1.000000
vt 0.468750 1.000000
vt 0.468750 1.000000
vt 0.875000 1.000000
vt 0.875000 1.000000
vt 0.031250 1.000000
vt 0.031250 1.000000
vt 0.000000 1.000000
vt 0.000000 1.000000
vt 0.296822 0.485388
vt 0.250000 0.490000
vt 0.203178 0.485388
vt 0.158156 0.471731
vt 0.116663 0.449553
vt 0.080294 0.419706
vt 0.050447 0.383337
vt 0.028269 0.341844
vt 0.014612 0.296822
vt 0.010000 0.250000
vt 0.014612 0.203178
vt 0.028269 0.158156
vt 0.050447 0.116663
vt 0.080294 0.080294
vt 0.116663 0.050447
vt 0.158156 0.028269
vt 0.203178 0.014612
vt 0.250000 0.010000
vt 0.296822 0.014612
vt 0.341844 0.028269
vt 0.383337 0.050447
vt 0.419706 0.080294
vt 0.449553 0.116663
vt 0.471731 0.158156
vt 0.485388 0.203178
vt 0.490000 0.250000
vt 0.485388 0.296822
vt 0.471731 0.341844
vt 0.449553 0.383337
vt 0.419706 0.419706
vt 0.383337 0.449553
vt 0.341844 0.471731
vt 0.750000 1.000000
vt 0.718750 1.000000
vt 0.281250 1.000000
vt 0.687500 1.000000
vt 0.250000 1.000000
vt 0.656250 1.000000
vt 0.218750 1.000000
vt 0.625000 1.000000
vt 0.187500 1.000000
vt 0.593750 1.000000
vt 0.156250 1.000000
vt 0.562500 1.000000
vt 1.000000 1.000000
vt 0.968750 1.000000
vt 0.125000 1.000000
vt 0.531250 1.000000
vt 0.937500 1.000000
vt 0.093750 1.000000
vt 0.500000 1.000000
vt 0.906250 1.000000
vt 0.062500 1.000000
vt 0.468750 1.000000
vt 0.875000 1.000000
vt 0.031250 1.000000
vt 0.437500 1.000000
vt 0.843750 1.000000
vt 0.000000 1.000000
vt 0.406250 1.000000
vt 0.812500 1.000000
vt 0.375000 1.000000
vt 0.781250 1.000000
vn -0.9999 0.0000 0.0121
vn 0.0097 -0.7992 0.6010
vn 0.0022 0.9905 0.1372
vn 0.0063 -0.9197 0.3925
vn 0.0063 0.9197 0.3925
vn 0.0022 -0.9905 0.1373
vn 0.0097 0.7992 0.6010
vn -0.0022 -0.9905 -0.1372
vn 0.0122 0.6547 0.7558
vn -0.0063 -0.9197 -0.3925
vn 0.0140 0.5039 0.8637
vn -0.0097 -0.7992 -0.6009
vn 0.0151 0.3552 0.9347
vn -0.0161 0.0698 -0.9974
vn -0.0122 -0.6547 -0.7558
vn 0.0158 0.2108 0.9774
vn -0.0158 0.2108 -0.9774
vn -0.0139 -0.5039 -0.8637
vn 0.0161 0.0698 0.9974
vn -0.0151 0.3551 -0.9347
vn -0.0151 -0.3552 -0.9347
vn 0.0161 -0.0698 0.9974
vn -0.0139 0.5039 -0.8637
vn -0.0158 -0.2108 -0.9774
vn 0.0158 -0.2108 0.9774
vn -0.0122 0.6547 -0.7558
vn -0.0161 -0.0699 -0.9974
vn 0.0151 -0.3552 0.9347
vn -0.0097 0.7993 -0.6009
vn 0.0139 -0.5039 0.8637
vn -0.0063 0.9197 -0.3925
vn -0.0022 0.9905 -0.1373
usemtl Wheel
s 1
f 129/133/42 130/134/42 131/135/42 132/136/42
f 133/137/43 134/138/43 135/139/43 136/140/43
f 137/141/42 138/142/42 139/143/42 140/144/42
f 141/145/42 129/133/42 132/136/42 142/146/42
f 143/147/42 137/141/42 140/144/42 144/148/42
f 145/149/42 141/145/42 142/146/42 134/138/42
f 146/150/42 143/147/42 144/148/42 147/151/42
f 148/152/42 145/149/42 134/138/42 133/137/42
f 149/153/42 146/150/42 147/151/42 150/154/42
f 151/155/42 148/152/42 133/137/42 152/156/42
f 153/157/42 149/153/42 150/154/42 154/158/42
f 155/159/42 151/155/42 152/156/42 156/160/42
f 157/161/42 153/157/42 154/158/42 158/162/42
f 159/163/42 155/159/42 156/160/42 160/164/42
f 161/165/42 157/161/42 158/162/42 162/166/42
f 163/167/42 159/163/42 160/164/42 164/168/42
f 165/169/42 161/165/42 162/166/42 166/170/42
f 167/171/42 163/167/42 164/168/42 168/172/42
f 169/173/42 165/169/42 166/170/42 170/174/42
f 171/175/42 172/176/42 173/177/42 174/178/42
f 175/179/42 167/171/42 168/172/42 176/180/42
f 177/181/42 169/173/42 170/174/42 178/182/42
f 179/183/42 171/175/42 174/178/42 180/184/42
f 181/185/42 175/179/42 176/180/42 182/186/42
f 183/187/42 177/181/42 178/182/42 184/188/42
f 185/189/42 179/183/42 180/184/42 186/190/42
f 187/191/42 181/185/42 182/186/42 188/192/42
f 189/193/42 183/187/42 184/188/42 190/194/42
f 191/195/42 185/189/42 186/190/42 192/196/42
f 193/197/42 187/191/42 188/192/42 194/198/42
f 130/134/42 189/193/42 190/194/42 131/135/42
f 138/142/42 191/195/42 192/196/42 139/143/42
f 172/199/42 193/197/42 194/198/42 173/200/42
f 195/201/42 196/202/42 197/203/42 198/204/42 199/205/42 200/206/42 201/207/42 202/208/42 203/209/42 204/210/42 205/211/42 136/212/42 135/213/42 206/214/42 207/215/42 208/216/42 209/217/42 210/218/42 211/219/42 212/220/42 213/221/42 214/222/42 215/223/42 216/224/42 217/225/42 218/226/42 219/227/42 220/228/42 221/229/42 222/230/42 223/231/42 224/232/42
f 150/154/44 147/151/44 218/233/44 217/234/44
f 152/156/45 133/137/45 136/140/45 205/235/45
f 154/158/46 150/154/46 217/234/46 216/236/46
f 156/160/47 152/156/47 205/235/47 204/237/47
f 158/162/48 154/158/48 216/236/48 215/238/48
f 160/164/49 156/160/49 204/237/49 203/239/49
f 162/166/50 158/162/50 215/238/50 214/240/50
f 164/168/51 160/164/51 203/239/51 202/241/51
f 166/170/52 162/166/52 214/240/52 213/242/52
f 168/172/53 164/168/53 202/241/53 201/243/53
f 170/174/54 166/170/54 213/242/54 212/244/54
f 174/178/55 173/177/55 196/245/55 195/246/55
f 176/180/56 168/172/56 201/243/56 200/247/56
f 178/182/57 170/174/57 212/244/57 211/248/57
f 180/184/58 174/178/58 195/246/58 224/249/58
f 182/186/59 176/180/59 200/247/59 199/250/59
f 184/188/60 178/182/60 211/248/60 210/251/60
f 186/190/61 180/184/61 224/249/61 223/252/61
f 188/192/62 182/186/62 199/250/62 198/253/62
f 190/194/63 184/188/63 210/251/63 209/254/63
f 192/196/64 186/190/64 223/252/64 222/255/64
f 194/198/65 188/192/65 198/253/65 197/256/65
f 131/135/66 190/194/66 209/254/66 208/257/66
f 139/143/67 192/196/67 222/255/67 221/258/67
f 173/200/68 194/198/68 197/256/68 196/259/68
f 132/136/69 131/135/69 208/257/69 207/260/69
f 140/144/70 139/143/70 221/258/70 220/261/70
f 142/146/71 132/136/71 207/260/71 206/262/71
f 144/148/72 140/144/72 220/261/72 219/263/72
f 147/151/73 144/148/73 219/263/73 218/233/73
