# Blender v3.0.1 OBJ File: 'carroprac5.blend'
# www.blender.org
mtllib jeepcofre.mtl
o Body_Cube.001
v 1.200504 -0.213088 1.857436
v 1.334003 -0.213370 1.850155
v 1.317525 -0.065536 1.742176
v 1.184762 -0.063882 1.749581
v 1.449750 -0.204801 0.363940
v 1.475758 -0.202877 0.030000
v 1.257433 0.009096 0.030000
v 1.268458 -0.004596 0.344129
v 0.561700 0.009096 0.030000
v 0.022869 0.011420 0.029406
v 0.573483 -0.003019 0.351206
v -0.059691 -0.001552 0.357772
v 0.611257 -0.041851 1.380973
v 0.608831 -0.039358 1.314823
v -0.033946 -0.033495 1.341090
v -0.031375 -0.035687 1.408593
v 1.366372 -0.210974 1.434531
v 1.371728 -0.210576 1.365759
v 1.301533 -0.045674 1.286516
v 1.303803 -0.048493 1.351209
v 0.597048 -0.027243 0.993619
v 0.585265 -0.015131 0.672412
v -0.058919 -0.012201 0.685546
v -0.046432 -0.022847 1.013318
v 1.397735 -0.208652 1.031819
v 1.423743 -0.206725 0.697881
v 1.279483 -0.018290 0.658258
v 1.290508 -0.031982 0.972387
v 1.352866 -0.211973 1.607957
v 1.309529 -0.055605 1.514347
v 0.625923 -0.056928 1.780749
v 0.617377 -0.048142 1.547787
v -0.024891 -0.041217 1.578816
v -0.015835 -0.048939 1.816541
v 1.359618 -0.211473 1.521243
v 1.306666 -0.052050 1.432777
v 0.614316 -0.044996 1.464379
v -0.028134 -0.038453 1.493704
v 1.173760 -0.050695 1.438843
v 1.170859 -0.047219 1.356922
v 1.176660 -0.054173 1.520765
v 1.157389 -0.031073 0.976462
v 1.146219 -0.017682 0.660975
v 1.168559 -0.044462 1.291951
v 1.135047 -0.004293 0.345488
v 1.123877 0.009096 0.030000
v 0.638567 -0.211894 1.888084
v -0.006747 -0.210525 1.923278
v -1.153042 -0.213088 1.857436
v -1.137301 -0.063882 1.749581
v -1.270064 -0.065536 1.742176
v -1.286541 -0.213370 1.850155
v -1.402289 -0.204801 0.363940
v -1.220997 -0.004596 0.344129
v -1.209972 0.009096 0.030000
v -1.428296 -0.202877 0.030000
v -0.514239 0.009096 0.030000
v 0.024592 0.011420 0.029406
v -0.526021 -0.003019 0.351206
v 0.107152 -0.001552 0.357772
v -0.563796 -0.041851 1.380973
v 0.078836 -0.035687 1.408593
v 0.081408 -0.033495 1.341090
v -0.561369 -0.039358 1.314823
v -1.318910 -0.210974 1.434531
v -1.256342 -0.048493 1.351209
v -1.254072 -0.045674 1.286516
v -1.324266 -0.210576 1.365759
v -0.549587 -0.027243 0.993619
v 0.093894 -0.022847 1.013318
v 0.106380 -0.012201 0.685546
v -0.537804 -0.015131 0.672412
v -1.350274 -0.208652 1.031819
v -1.243047 -0.031982 0.972387
v -1.232022 -0.018290 0.658258
v -1.376281 -0.206725 0.697881
v -1.262068 -0.055605 1.514347
v -1.305405 -0.211973 1.607957
v -0.578461 -0.056928 1.780749
v 0.063296 -0.048939 1.816541
v 0.072353 -0.041217 1.578816
v -0.569915 -0.048142 1.547787
v -1.312157 -0.211473 1.521243
v -1.259205 -0.052050 1.432777
v -0.566855 -0.044996 1.464379
v 0.075595 -0.038453 1.493704
v -1.126299 -0.050695 1.438843
v -1.123397 -0.047219 1.356922
v -1.129198 -0.054173 1.520765
v -1.109927 -0.031073 0.976462
v -1.098757 -0.017682 0.660975
v -1.121097 -0.044462 1.291951
v -1.087586 -0.004293 0.345488
v -1.076416 0.009096 0.030000
v 0.054209 -0.210525 1.923278
v -0.591105 -0.211894 1.888084
vt 0.596799 0.487554
vt 0.596799 0.500000
vt 0.625000 0.500000
vt 0.625000 0.487554
vt 0.596799 0.576320
vt 0.596799 0.593468
vt 0.625000 0.593468
vt 0.625000 0.576320
vt 0.689837 0.576320
vt 0.689836 0.593468
vt 0.749931 0.593468
vt 0.750000 0.576320
vt 0.689836 0.521343
vt 0.689836 0.524875
vt 0.750000 0.524875
vt 0.750000 0.521343
vt 0.596799 0.521343
vt 0.596799 0.524875
vt 0.625000 0.524875
vt 0.625000 0.521343
vt 0.689837 0.542023
vt 0.689837 0.559172
vt 0.750000 0.559172
vt 0.750000 0.542023
vt 0.596799 0.542023
vt 0.596799 0.559172
vt 0.625000 0.559172
vt 0.625000 0.542023
vt 0.596799 0.512437
vt 0.625000 0.512437
vt 0.689836 0.500000
vt 0.689836 0.512437
vt 0.750000 0.512437
vt 0.750000 0.500000
vt 0.596799 0.516890
vt 0.625000 0.516890
vt 0.689836 0.516890
vt 0.750000 0.516890
vt 0.637446 0.516890
vt 0.637446 0.521343
vt 0.637446 0.500000
vt 0.637446 0.512437
vt 0.637446 0.542023
vt 0.637446 0.559172
vt 0.637446 0.524875
vt 0.637446 0.576320
vt 0.637446 0.593469
vt 0.596799 0.375000
vt 0.596799 0.435164
vt 0.625000 0.435164
vt 0.625000 0.375000
vt 0.596799 0.487554
vt 0.625000 0.487554
vt 0.625000 0.500000
vt 0.596799 0.500000
vt 0.596799 0.576320
vt 0.625000 0.576320
vt 0.625000 0.593468
vt 0.596799 0.593468
vt 0.689837 0.576320
vt 0.750000 0.576320
vt 0.749931 0.593468
vt 0.689836 0.593468
vt 0.689836 0.521343
vt 0.750000 0.521343
vt 0.750000 0.524875
vt 0.689836 0.524875
vt 0.596799 0.521343
vt 0.625000 0.521343
vt 0.625000 0.524875
vt 0.596799 0.524875
vt 0.689837 0.542023
vt 0.750000 0.542023
vt 0.750000 0.559172
vt 0.689837 0.559172
vt 0.596799 0.542023
vt 0.625000 0.542023
vt 0.625000 0.559172
vt 0.596799 0.559172
vt 0.625000 0.512437
vt 0.596799 0.512437
vt 0.689836 0.500000
vt 0.750000 0.500000
vt 0.750000 0.512437
vt 0.689836 0.512437
vt 0.596799 0.516890
vt 0.625000 0.516890
vt 0.689836 0.516890
vt 0.750000 0.516890
vt 0.637446 0.516890
vt 0.637446 0.521343
vt 0.637446 0.500000
vt 0.637446 0.512437
vt 0.637446 0.542023
vt 0.637446 0.559172
vt 0.637446 0.524875
vt 0.637446 0.576320
vt 0.637446 0.593469
vt 0.596799 0.375000
vt 0.625000 0.375000
vt 0.625000 0.435164
vt 0.596799 0.435164
vn 0.0487 0.5906 0.8055
vn 0.7168 0.6965 0.0334
vn 0.0032 0.9993 0.0384
vn 0.0024 0.9992 0.0395
vn 0.0034 0.9992 0.0390
vn 0.0033 0.9993 0.0382
vn 0.0112 0.9992 0.0371
vn 0.0101 0.9993 0.0372
vn 0.0100 0.9993 0.0347
vn 0.0111 0.9993 0.0346
vn 0.9209 0.3887 0.0307
vn 0.0080 0.9993 0.0372
vn 0.0053 0.9993 0.0374
vn 0.0053 0.9994 0.0349
vn 0.0079 0.9994 0.0348
vn 0.8189 0.5730 0.0327
vn 0.9772 0.2105 0.0277
vn 0.0135 0.9992 0.0370
vn 0.0129 0.9992 0.0371
vn 0.0128 0.9993 0.0346
vn 0.0134 0.9993 0.0345
vn 0.9356 0.3518 0.0301
vn 0.0119 0.9992 0.0371
vn 0.0118 0.9993 0.0346
vn 0.0121 0.9991 0.0411
vn 0.0114 0.9991 0.0411
vn 0.0137 0.9991 0.0410
vn 0.0131 0.9991 0.0410
vn 0.0081 0.9991 0.0412
vn 0.0054 0.9991 0.0413
vn 0.0103 0.9991 0.0411
vn 0.0027 0.9991 0.0414
vn 0.0013 0.9991 0.0414
vn 0.0496 0.5618 0.8258
vn 0.0027 0.9991 0.0429
vn 0.0014 0.9991 0.0429
vn 0.0114 0.9990 0.0426
vn 0.0103 0.9990 0.0426
vn 0.0081 0.9991 0.0427
vn 0.0054 0.9991 0.0428
vn 0.0138 0.9990 0.0425
vn 0.0131 0.9990 0.0425
vn 0.0121 0.9990 0.0425
vn 0.0491 0.5799 0.8132
vn 0.7637 0.6448 0.0332
vn 0.9513 0.3070 0.0294
vn 0.8817 0.4708 0.0317
vn -0.0492 0.5798 0.8133
vn -0.0488 0.5907 0.8054
vn -0.0487 0.5906 0.8055
vn -0.7168 0.6965 0.0334
vn -0.0032 0.9993 0.0384
vn -0.0033 0.9993 0.0382
vn -0.0034 0.9992 0.0390
vn -0.0024 0.9992 0.0395
vn -0.0112 0.9992 0.0371
vn -0.0111 0.9993 0.0346
vn -0.0100 0.9993 0.0347
vn -0.0101 0.9993 0.0372
vn -0.9209 0.3887 0.0307
vn -0.0080 0.9993 0.0372
vn -0.0079 0.9994 0.0348
vn -0.0053 0.9994 0.0349
vn -0.0053 0.9993 0.0374
vn -0.8189 0.5730 0.0327
vn -0.9772 0.2105 0.0277
vn -0.0135 0.9992 0.0370
vn -0.0134 0.9993 0.0345
vn -0.0128 0.9993 0.0346
vn -0.0129 0.9992 0.0371
vn -0.9356 0.3518 0.0301
vn -0.0119 0.9992 0.0371
vn -0.0118 0.9993 0.0346
vn -0.0121 0.9991 0.0411
vn -0.0114 0.9991 0.0411
vn -0.0137 0.9991 0.0410
vn -0.0131 0.9991 0.0410
vn -0.0081 0.9991 0.0412
vn -0.0054 0.9991 0.0413
vn -0.0103 0.9991 0.0411
vn -0.0027 0.9991 0.0414
vn -0.0013 0.9991 0.0414
vn -0.0496 0.5618 0.8258
vn -0.0027 0.9991 0.0429
vn -0.0014 0.9991 0.0429
vn -0.0114 0.9990 0.0426
vn -0.0103 0.9990 0.0426
vn -0.0081 0.9991 0.0427
vn -0.0054 0.9991 0.0428
vn -0.0138 0.9990 0.0425
vn -0.0131 0.9990 0.0425
vn -0.0121 0.9990 0.0425
vn -0.0491 0.5799 0.8132
vn -0.7637 0.6448 0.0332
vn -0.9513 0.3070 0.0294
vn -0.8817 0.4708 0.0317
usemtl Body
s 1
f 1/1/1 2/2/1 3/3/1 4/4/1
f 5/5/2 6/6/2 7/7/2 8/8/2
f 11/9/3 9/10/4 10/11/5 12/12/6
f 13/13/7 14/14/8 15/15/9 16/16/10
f 17/17/11 18/18/11 19/19/11 20/20/11
f 21/21/12 22/22/13 23/23/14 24/24/15
f 25/25/16 26/26/16 27/27/16 28/28/16
f 2/2/17 29/29/17 30/30/17 3/3/17
f 31/31/18 32/32/19 33/33/20 34/34/21
f 35/35/22 17/17/22 20/20/22 36/36/22
f 37/37/23 13/13/7 16/16/10 38/38/24
f 39/39/25 40/40/26 13/13/7 37/37/23
f 4/41/27 41/42/28 32/32/19 31/31/18
f 42/43/29 43/44/30 22/22/13 21/21/12
f 40/40/26 44/45/31 14/14/8 13/13/7
f 45/46/32 46/47/33 9/10/4 11/9/3
f 48/48/34 47/49/34 31/50/34 34/51/34
f 8/8/35 7/7/36 46/47/33 45/46/32
f 20/20/37 19/19/38 44/45/31 40/40/26
f 28/28/39 27/27/40 43/44/30 42/43/29
f 3/3/41 30/30/42 41/42/28 4/41/27
f 36/36/43 20/20/37 40/40/26 39/39/25
f 47/49/44 1/1/44 4/4/44 31/50/44
f 27/27/40 8/8/35 45/46/32 43/44/30
f 43/44/30 45/46/32 11/9/3 22/22/13
f 22/22/13 11/9/3 12/12/6 23/23/14
f 26/26/45 5/5/45 8/8/45 27/27/45
f 30/30/42 36/36/43 39/39/25 41/42/28
f 41/42/28 39/39/25 37/37/23 32/32/19
f 32/32/19 37/37/23 38/38/24 33/33/20
f 29/29/46 35/35/46 36/36/46 30/30/46
f 19/19/38 28/28/39 42/43/29 44/45/31
f 44/45/31 42/43/29 21/21/12 14/14/8
f 18/18/47 25/25/47 28/28/47 19/19/47
f 14/14/8 21/21/12 24/24/15 15/15/9
f 49/52/48 50/53/49 51/54/50 52/55/50
f 53/56/51 54/57/51 55/58/51 56/59/51
f 59/60/52 60/61/53 58/62/54 57/63/55
f 61/64/56 62/65/57 63/66/58 64/67/59
f 65/68/60 66/69/60 67/70/60 68/71/60
f 69/72/61 70/73/62 71/74/63 72/75/64
f 73/76/65 74/77/65 75/78/65 76/79/65
f 52/55/66 51/54/66 77/80/66 78/81/66
f 79/82/67 80/83/68 81/84/69 82/85/70
f 83/86/71 84/87/71 66/69/71 65/68/71
f 85/88/72 86/89/73 62/65/57 61/64/56
f 87/90/74 85/88/72 61/64/56 88/91/75
f 50/92/76 79/82/67 82/85/70 89/93/77
f 90/94/78 69/72/61 72/75/64 91/95/79
f 88/91/75 61/64/56 64/67/59 92/96/80
f 93/97/81 59/60/52 57/63/55 94/98/82
f 95/99/83 80/100/83 79/101/83 96/102/83
f 54/57/84 93/97/81 94/98/82 55/58/85
f 66/69/86 88/91/75 92/96/80 67/70/87
f 74/77/88 90/94/78 91/95/79 75/78/89
f 51/54/90 50/92/76 89/93/77 77/80/91
f 84/87/92 87/90/74 88/91/75 66/69/86
f 96/102/93 79/101/93 50/53/49 49/52/48
f 75/78/89 91/95/79 93/97/81 54/57/84
f 91/95/79 72/75/64 59/60/52 93/97/81
f 72/75/64 71/74/63 60/61/53 59/60/52
f 76/79/94 75/78/94 54/57/94 53/56/94
f 77/80/91 89/93/77 87/90/74 84/87/92
f 89/93/77 82/85/70 85/88/72 87/90/74
f 82/85/70 81/84/69 86/89/73 85/88/72
f 78/81/95 77/80/95 84/87/95 83/86/95
f 67/70/87 92/96/80 90/94/78 74/77/88
f 92/96/80 64/67/59 69/72/61 90/94/78
f 68/71/96 67/70/96 74/77/96 73/76/96
f 64/67/59 63/66/58 70/73/62 69/72/61
